<?xml version="1.0" standalone="no"?><svg xmlns="http://www.w3.org/2000/svg" viewBox="0 0 1440 320"><path fill="#be185d" fill-opacity="1" d="M0,64L18.5,64C36.9,64,74,64,111,85.3C147.7,107,185,149,222,138.7C258.5,128,295,64,332,48C369.2,32,406,64,443,85.3C480,107,517,117,554,138.7C590.8,160,628,192,665,224C701.5,256,738,288,775,256C812.3,224,849,128,886,85.3C923.1,43,960,53,997,74.7C1033.8,96,1071,128,1108,128C1144.6,128,1182,96,1218,122.7C1255.4,149,1292,235,1329,245.3C1366.2,256,1403,192,1422,160L1440,128L1440,320L1421.5,320C1403.1,320,1366,320,1329,320C1292.3,320,1255,320,1218,320C1181.5,320,1145,320,1108,320C1070.8,320,1034,320,997,320C960,320,923,320,886,320C849.2,320,812,320,775,320C738.5,320,702,320,665,320C627.7,320,591,320,554,320C516.9,320,480,320,443,320C406.2,320,369,320,332,320C295.4,320,258,320,222,320C184.6,320,148,320,111,320C73.8,320,37,320,18,320L0,320Z"></path></svg>
